<svg width="54" height="54" viewBox="0 0 54 54" fill="none" xmlns="http://www.w3.org/2000/svg">
<path d="M27 0C19.8391 0 12.9717 2.84462 7.90824 7.90824C2.84462 12.9715 0 19.8393 0 27C0 34.1607 2.84462 41.0283 7.90824 46.0918C12.9715 51.1554 19.8393 54 27 54C31.7392 54 36.3954 52.7524 40.4999 50.3828C44.6045 48.0128 48.0126 44.6046 50.3828 40.4999C52.7524 36.3954 54 31.7392 54 27C54 19.8391 51.1554 12.9717 46.0918 7.90824C41.0285 2.84462 34.1607 0 27 0V0ZM40.4999 27.0538C40.5089 27.6407 40.2792 28.206 39.8626 28.62L30.9742 37.4812C30.4254 38.0312 29.625 38.2462 28.8743 38.0459C28.124 37.8455 27.5372 37.2598 27.3352 36.5098C27.1337 35.7594 27.3477 34.9586 27.8965 34.4087L33.102 29.1978H15.6602C14.8887 29.1978 14.1757 28.7861 13.7897 28.1179C13.4039 27.4493 13.4039 26.6259 13.7897 25.9578C14.1757 25.2895 14.8887 24.8779 15.6602 24.8779H33.1512L27.8971 19.6237C27.3471 19.0738 27.1324 18.2726 27.3336 17.5215C27.5351 16.7704 28.1216 16.1835 28.8726 15.9824C29.6237 15.7813 30.4253 15.996 30.9749 16.5459L39.8632 25.4071C40.273 25.8143 40.5024 26.3684 40.5005 26.9462V27.0543L40.4999 27.0538Z" fill="white"/>
</svg>
