<svg width="54" height="54" viewBox="0 0 54 54" fill="none" xmlns="http://www.w3.org/2000/svg">
<path d="M27 54C34.1609 54 41.0283 51.1554 46.0918 46.0918C51.1554 41.0285 54 34.1607 54 27C54 19.8393 51.1554 12.9717 46.0918 7.90824C41.0285 2.84462 34.1607 -1.36983e-06 27 -1.36983e-06C22.2608 -1.36983e-06 17.6046 1.24758 13.5001 3.6172C9.39555 5.98721 5.9874 9.39535 3.6172 13.5001C1.24758 17.6046 -1.36983e-06 22.2608 -1.36983e-06 27C-1.36983e-06 34.1609 2.84462 41.0283 7.90824 46.0918C12.9715 51.1554 19.8393 54 27 54V54ZM13.5001 26.9462C13.4911 26.3593 13.7208 25.794 14.1374 25.38L23.0258 16.5188C23.5746 15.9688 24.375 15.7538 25.1257 15.9541C25.876 16.1545 26.4628 16.7402 26.6648 17.4902C26.8663 18.2406 26.6523 19.0414 26.1035 19.5913L20.898 24.8022H38.3398C39.1113 24.8022 39.8243 25.2139 40.2103 25.8821C40.5961 26.5507 40.5961 27.3741 40.2103 28.0422C39.8243 28.7105 39.1113 29.1221 38.3398 29.1221H20.8488L26.1029 34.3763C26.6529 34.9262 26.8676 35.7274 26.6664 36.4785C26.4649 37.2296 25.8784 37.8165 25.1274 38.0176C24.3763 38.2187 23.5747 38.004 23.0251 37.4541L14.1368 28.5929C13.727 28.1857 13.4976 27.6316 13.4995 27.0538V26.9457L13.5001 26.9462Z" fill="white"/>
</svg>
