<svg width="54" height="54" viewBox="0 0 54 54" fill="none" xmlns="http://www.w3.org/2000/svg">
<path d="M0 27C0 34.1609 2.84462 41.0283 7.90824 46.0918C12.9715 51.1554 19.8393 54 27 54C34.1607 54 41.0283 51.1554 46.0918 46.0918C51.1554 41.0285 54 34.1607 54 27C54 22.2608 52.7524 17.6046 50.3828 13.5001C48.0128 9.39555 44.6046 5.9874 40.4999 3.6172C36.3954 1.24758 31.7392 -1.36983e-06 27 -1.36983e-06C19.8391 -1.36983e-06 12.9717 2.84462 7.90824 7.90824C2.84462 12.9715 0 19.8393 0 27H0ZM27.0538 13.5001C27.6407 13.4911 28.206 13.7208 28.62 14.1374L37.4812 23.0258C38.0312 23.5746 38.2462 24.375 38.0459 25.1257C37.8455 25.876 37.2598 26.4628 36.5098 26.6648C35.7594 26.8663 34.9586 26.6523 34.4087 26.1035L29.1978 20.898L29.1978 38.3398C29.1978 39.1113 28.7861 39.8243 28.1179 40.2103C27.4493 40.5961 26.6259 40.5961 25.9578 40.2103C25.2895 39.8243 24.8779 39.1113 24.8779 38.3398L24.8779 20.8488L19.6237 26.1029C19.0738 26.6529 18.2726 26.8676 17.5215 26.6664C16.7704 26.4649 16.1835 25.8784 15.9824 25.1274C15.7813 24.3763 15.996 23.5747 16.5459 23.0251L25.4071 14.1368C25.8143 13.727 26.3684 13.4976 26.9462 13.4995H27.0543L27.0538 13.5001Z" fill="white"/>
</svg>
