<svg width="54" height="54" viewBox="0 0 54 54" fill="none" xmlns="http://www.w3.org/2000/svg">
<path d="M54 27C54 19.8391 51.1554 12.9717 46.0918 7.90824C41.0285 2.84462 34.1607 0 27 0C19.8393 0 12.9717 2.84462 7.90824 7.90824C2.84462 12.9715 -1.36983e-06 19.8393 -1.36983e-06 27C-1.36983e-06 31.7392 1.24758 36.3954 3.6172 40.4999C5.98721 44.6045 9.39535 48.0126 13.5001 50.3828C17.6046 52.7524 22.2608 54 27 54C34.1609 54 41.0283 51.1554 46.0918 46.0918C51.1554 41.0285 54 34.1607 54 27H54ZM26.9462 40.4999C26.3593 40.5089 25.794 40.2792 25.38 39.8626L16.5188 30.9742C15.9688 30.4254 15.7538 29.625 15.9541 28.8743C16.1545 28.124 16.7402 27.5372 17.4902 27.3352C18.2406 27.1337 19.0414 27.3477 19.5913 27.8965L24.8022 33.102L24.8022 15.6602C24.8022 14.8887 25.2139 14.1757 25.8821 13.7897C26.5507 13.4039 27.3741 13.4039 28.0422 13.7897C28.7105 14.1757 29.1221 14.8887 29.1221 15.6602L29.1221 33.1512L34.3763 27.8971C34.9262 27.3471 35.7274 27.1324 36.4785 27.3336C37.2296 27.5351 37.8165 28.1216 38.0176 28.8726C38.2187 29.6237 38.004 30.4253 37.4541 30.9749L28.5929 39.8632C28.1857 40.273 27.6316 40.5024 27.0538 40.5005H26.9457L26.9462 40.4999Z" fill="white"/>
</svg>
