<svg width="46" height="35" viewBox="0 0 46 35" fill="none" xmlns="http://www.w3.org/2000/svg">
<path d="M16.9065 0.005859C16.9065 0.005859 10.5393 0.443359 6.37524 3.78711C6.35571 3.79492 6.33228 3.80664 6.31274 3.81836C5.59009 4.48633 5.04712 5.52148 4.37524 7.00586C3.70337 8.49023 2.99243 10.4004 2.34399 12.5371C1.05103 16.8145 0.000244393 22.0645 0.000244393 27.0059C-0.00366161 27.1816 0.0393074 27.3535 0.125244 27.5059C1.58618 30.0723 4.27368 31.623 6.78149 32.5996C9.28931 33.5762 11.6057 33.9668 12.7815 34.0059C13.1135 34.0176 13.4299 33.8652 13.6252 33.5996L16.0627 30.2246C18.0276 30.6895 20.3323 31.0059 23.0002 31.0059C25.6682 31.0059 27.9729 30.6895 29.9377 30.2246L32.3752 33.5996C32.5706 33.8652 32.887 34.0176 33.219 34.0059C34.3948 33.9668 36.7112 33.5762 39.219 32.5996C41.7268 31.623 44.4143 30.0723 45.8752 27.5059C45.9612 27.3535 46.0042 27.1816 46.0002 27.0059C46.0002 22.0645 44.9495 16.8145 43.6565 12.5371C43.0081 10.4004 42.2971 8.49023 41.6252 7.00586C40.9534 5.52148 40.4104 4.48633 39.6877 3.81836C39.6682 3.80664 39.6448 3.79492 39.6252 3.78711C35.4612 0.443359 29.094 0.005859 29.094 0.005859C29.0198 -0.001953 28.9495 -0.001953 28.8752 0.005859C28.5276 0.052734 28.2346 0.279297 28.094 0.599609C28.094 0.599609 27.7542 1.3457 27.5315 2.41211C25.5823 2.09961 23.9417 2.00586 23.0002 2.00586C22.0588 2.00586 20.4182 2.09961 18.469 2.41211C18.2463 1.3457 17.9065 0.599609 17.9065 0.599609C17.7346 0.208984 17.3323 -0.029297 16.9065 0.005859ZM16.2815 2.16211C16.3557 2.36523 16.4065 2.55664 16.469 2.78711C14.2151 3.31055 11.7463 4.16601 9.43774 5.59961C9.07446 5.75195 8.83618 6.10352 8.82446 6.49805C8.81665 6.88867 9.03931 7.25195 9.39087 7.42383C9.74634 7.5918 10.1682 7.54101 10.469 7.28711C15.1018 4.41601 20.9963 4.00586 23.0002 4.00586C25.0042 4.00586 30.8987 4.41601 35.5315 7.28711C35.8323 7.54101 36.2542 7.5918 36.6096 7.42383C36.9612 7.25195 37.1838 6.88867 37.176 6.49805C37.1643 6.10352 36.926 5.75195 36.5627 5.59961C34.2542 4.16601 31.7854 3.31055 29.5315 2.78711C29.594 2.55664 29.6448 2.36523 29.719 2.16211C30.8596 2.30273 35.2932 2.90039 38.3127 5.28711C38.5081 5.4668 39.1877 6.4668 39.8127 7.84961C40.4377 9.23242 41.094 11.0332 41.719 13.0996C42.9377 17.1309 43.9221 22.1035 43.969 26.6621C42.8323 28.502 40.6995 29.8691 38.5002 30.7246C36.5002 31.502 34.6331 31.8496 33.6565 31.9434L31.969 29.6621C32.8284 29.3848 33.6018 29.084 34.2815 28.7871C36.8049 27.6777 38.1565 26.5059 38.1565 26.5059C38.5706 26.1348 38.6057 25.498 38.2346 25.084C37.8635 24.6699 37.2268 24.6348 36.8127 25.0059C36.8127 25.0059 35.7659 25.9629 33.469 26.9746C32.6252 27.3457 31.6018 27.7129 30.4377 28.0371C30.1682 28.0059 29.8987 28.084 29.6877 28.2559C27.8245 28.709 25.6096 29.0059 23.0002 29.0059C20.3713 29.0059 18.1526 28.6816 16.2815 28.2246C16.0706 28.084 15.8127 28.0254 15.5627 28.0684C14.3948 27.7441 13.3792 27.3457 12.5315 26.9746C10.2346 25.9629 9.18774 25.0059 9.18774 25.0059C8.96118 24.7949 8.64868 24.7051 8.34399 24.7559C7.95728 24.8145 7.63696 25.0918 7.53149 25.4707C7.42212 25.8457 7.54712 26.252 7.84399 26.5059C7.84399 26.5059 9.19556 27.6777 11.719 28.7871C12.3987 29.084 13.1721 29.3848 14.0315 29.6621L12.344 31.9434C11.3674 31.8496 9.50024 31.502 7.50024 30.7246C5.30103 29.8691 3.16821 28.502 2.03149 26.6621C2.07837 22.1035 3.06274 17.1309 4.28149 13.0996C4.90649 11.0332 5.56274 9.23242 6.18774 7.84961C6.81274 6.4668 7.49243 5.4668 7.68774 5.28711C10.7073 2.90039 15.1409 2.30273 16.2815 2.16211ZM16.5002 14.0059C13.9495 14.0059 12.0002 16.3223 12.0002 19.0059C12.0002 21.6895 13.9495 24.0059 16.5002 24.0059C19.051 24.0059 21.0002 21.6895 21.0002 19.0059C21.0002 16.3223 19.051 14.0059 16.5002 14.0059ZM29.5002 14.0059C26.9495 14.0059 25.0002 16.3223 25.0002 19.0059C25.0002 21.6895 26.9495 24.0059 29.5002 24.0059C32.051 24.0059 34.0002 21.6895 34.0002 19.0059C34.0002 16.3223 32.051 14.0059 29.5002 14.0059ZM16.5002 16.0059C17.8167 16.0059 19.0002 17.2715 19.0002 19.0059C19.0002 20.7402 17.8167 22.0059 16.5002 22.0059C15.1838 22.0059 14.0002 20.7402 14.0002 19.0059C14.0002 17.2715 15.1838 16.0059 16.5002 16.0059ZM29.5002 16.0059C30.8167 16.0059 32.0002 17.2715 32.0002 19.0059C32.0002 20.7402 30.8167 22.0059 29.5002 22.0059C28.1838 22.0059 27.0002 20.7402 27.0002 19.0059C27.0002 17.2715 28.1838 16.0059 29.5002 16.0059Z"/>
</svg>
