<svg width="120" height="120" viewBox="0 0 120 120" fill="none" xmlns="http://www.w3.org/2000/svg">
<path d="M60 119.959C26.9175 119.959 0 93.0416 0 59.9591C0 46.3803 4.425 33.5703 12.795 22.9203C14.0738 21.2928 16.4325 21.0116 18.06 22.2903C19.6912 23.5691 19.9725 25.9278 18.69 27.5553C11.37 36.8703 7.5 48.0791 7.5 59.9591C7.5 88.9091 31.05 112.459 60 112.459C70.2113 112.459 80.1037 109.53 88.6162 103.98C90.3562 102.855 92.6775 103.339 93.8062 105.075C94.9387 106.812 94.4475 109.133 92.7113 110.265C82.9763 116.607 71.6663 119.959 60 119.959V119.959ZM74.0512 102.507C72.5175 102.507 71.0775 101.558 70.5262 100.035C69.8212 98.0853 70.83 95.9366 72.7762 95.2316C87.5662 89.8766 97.5 75.6978 97.5 59.9591C97.5 55.2228 96.63 50.6028 94.9125 46.2378C94.155 44.3103 95.1038 42.1316 97.0275 41.3741C98.9475 40.6128 101.13 41.5616 101.891 43.4891C103.954 48.7391 105 54.2778 105 59.9591C105 78.8441 93.075 95.8541 75.33 102.282C74.91 102.432 74.475 102.507 74.0512 102.507ZM60.0225 74.9553C56.4975 74.9553 53.0775 73.7366 50.355 71.4491C46.9538 68.5916 45 64.4028 45 59.9591C45 58.3053 45.2662 56.6816 45.795 55.1291C46.4625 53.1678 48.5925 52.1253 50.5537 52.7853C52.515 53.4528 53.5612 55.5828 52.8975 57.5441C52.635 58.3166 52.5 59.1303 52.5 59.9591C52.5 62.1791 53.4788 64.2753 55.1813 65.7041C56.91 67.1591 59.1188 67.7403 61.3913 67.3353C64.3388 66.8178 66.8587 64.2978 67.3762 61.3503C67.74 59.3066 67.2937 57.2703 66.1237 55.6241C64.965 53.9966 63.1837 52.8791 61.23 52.5566C58.3462 52.0878 56.25 49.6053 56.25 46.6578V33.7091C56.25 31.6391 57.93 29.9591 60 29.9591C62.07 29.9591 63.75 31.6391 63.75 33.7091V45.4316C67.1513 46.3128 70.1925 48.3978 72.24 51.2853C74.5762 54.5778 75.4725 58.6128 74.7675 62.6478C73.7025 68.6928 68.7375 73.6616 62.6887 74.7266C61.8 74.8803 60.9075 74.9553 60.0225 74.9553ZM57.7687 104.895L57.4388 104.884C39.7725 103.894 24.27 92.5616 17.9513 76.0091C17.2125 74.0741 18.1837 71.9066 20.115 71.1678C22.0612 70.4366 24.2213 71.4003 24.9563 73.3353C30.03 86.6216 42.2025 95.8728 56.25 97.2716V88.3578C56.25 85.2153 58.6537 82.6466 61.8412 82.3803C73.59 81.4316 82.6613 71.4378 82.4963 59.6366C82.3313 47.7791 72.1762 37.6241 60.3187 37.4591C54.195 37.3278 48.5212 39.6753 44.2012 43.9391C39.8812 48.1991 37.5 53.8916 37.5 59.9591C37.5 68.1566 41.9587 75.7053 49.14 79.6691C50.955 80.6741 51.615 82.9541 50.6138 84.7653C49.6125 86.5728 47.3325 87.2366 45.5212 86.2391C35.9475 80.9553 30 70.8866 30 59.9591C30 51.8666 33.1725 44.2803 38.9363 38.5991C44.6963 32.9178 52.3238 29.8053 60.4238 29.9628C76.5038 30.1878 89.7713 43.4516 89.9963 59.5353C90.21 74.8391 78.78 87.8516 63.75 89.7266V98.8691C63.75 100.523 63.0563 102.128 61.8488 103.272C60.7425 104.31 59.2725 104.895 57.7687 104.895V104.895ZM41.25 44.9591C40.29 44.9591 39.33 44.5916 38.5988 43.8603L29.2238 34.4853C27.7575 33.0191 27.7575 30.6491 29.2238 29.1828C30.69 27.7166 33.06 27.7166 34.5262 29.1828L43.9012 38.5578C45.3675 40.0241 45.3675 42.3941 43.9012 43.8603C43.17 44.5916 42.21 44.9591 41.25 44.9591V44.9591ZM100.601 101.577C98.9925 101.577 97.4325 100.928 96.3037 99.7803L87.3337 90.7203C85.875 89.2466 85.89 86.8766 87.3638 85.4178C88.8338 83.9628 91.2075 83.9703 92.6663 85.4478L100.504 93.3641C108.251 83.9703 112.5 72.1766 112.5 59.9591C112.5 35.9816 96.3037 15.0716 73.1137 9.10909C71.1075 8.59534 69.9 6.54784 70.4137 4.54534C70.9312 2.53909 72.9825 1.34284 74.9813 1.84909C101.486 8.66284 120 32.5578 120 59.9591C120 74.5503 114.701 88.6128 105.079 99.5591C104.003 100.789 102.435 101.524 100.785 101.573L100.601 101.577ZM79.5038 46.1253C78.5438 46.1253 77.5838 45.7578 76.8525 45.0266C75.3863 43.5641 75.3863 41.1903 76.8525 39.7241L84.7687 31.8041C78.4387 26.2316 70.395 22.9428 61.9575 22.5078C58.7587 22.3466 56.25 19.7366 56.25 16.5641V7.59034C46.1288 8.30284 36.5287 11.8916 28.4062 18.0266C26.7487 19.2753 24.4013 18.9416 23.1525 17.2916C21.9075 15.6378 22.2337 13.2866 23.8875 12.0378C33.6525 4.67284 45.2737 0.510339 57.4987 0.00783857C59.085 -0.0784114 60.7088 0.551589 61.8825 1.67659C63.0713 2.82034 63.75 4.41034 63.75 6.04909V15.1128C73.9913 15.9641 83.67 20.3178 91.1288 27.4616C92.2875 28.5716 92.9287 30.0716 92.9437 31.6803C92.9587 33.2928 92.3137 34.8716 91.17 36.0078L82.155 45.0266C81.4238 45.7578 80.4638 46.1253 79.5038 46.1253V46.1253ZM16.5675 63.7091H3.75C1.68 63.7091 0 62.0291 0 59.9591C0 57.8891 1.68 56.2091 3.75 56.2091H15.1537C16.6575 38.1116 29.1225 22.4628 46.5413 17.0066C48.5175 16.3878 50.6212 17.4866 51.24 19.4628C51.8587 21.4391 50.76 23.5428 48.7837 24.1616C33.9037 28.8228 23.3625 42.4091 22.5525 57.9716C22.3837 61.1891 19.755 63.7091 16.5675 63.7091Z" fill="white"/>
</svg>
