<svg width="263" height="42" viewBox="0 0 263 42" fill="none" xmlns="http://www.w3.org/2000/svg">
<path fill-rule="evenodd" clip-rule="evenodd" d="M14.223 12.3349C13.7449 11.8395 13.2668 11.344 12.713 10.7728L12.7094 10.7658C12.8851 10.6465 13.0524 10.5261 13.2158 10.4085C13.5726 10.1519 13.911 9.90845 14.2775 9.71795C14.7515 9.47098 15.2366 9.24619 15.722 9.02131C16.1833 8.80757 16.6448 8.59374 17.0971 8.36071C17.3889 8.21303 17.6736 7.95635 17.8354 7.67506C18.092 7.23202 17.9654 6.75734 17.6455 6.37408C17.2939 5.95566 16.8017 5.81501 16.2955 5.98379C15.5818 6.22288 14.8716 6.49715 14.1931 6.82063C10.8039 8.44158 8.35697 10.9978 6.73271 14.3698C6.01901 15.8572 5.60416 17.4254 5.38267 19.0534C5.37721 19.092 5.37316 19.1326 5.36905 19.1738C5.34397 19.4245 5.31665 19.6978 4.95727 19.7039C4.42912 19.7136 3.90098 19.7082 3.36593 19.7028C3.12453 19.7004 2.88173 19.6979 2.63689 19.6968C2.82322 17.1406 3.41738 14.841 4.5846 12.7137C4.94883 12.0506 5.35231 11.4105 5.75557 10.7707C6.00234 10.3792 6.24903 9.98782 6.48661 9.59137C6.93662 8.84243 6.84872 8.28687 6.23699 7.82977C5.62525 7.37619 5.01703 7.43948 4.46858 8.08294C4.0924 8.52246 3.76543 9.00417 3.44199 9.48588C1.51889 12.3551 0.464169 15.5267 0.112596 18.9514C-0.260071 22.566 0.295414 26.0505 1.73335 29.3628C3.52988 33.438 6.34949 36.6518 10.1957 38.976C13.5602 41.0048 17.199 41.9823 21.0909 41.9999C24.0019 42.0104 26.818 41.4162 29.4794 40.2101C30.4322 39.7776 31.3568 39.2678 32.2534 38.7263C33.2905 38.1004 33.3151 36.9577 32.3272 36.4127C31.7471 36.0927 31.2232 36.3142 30.6994 36.6447C28.0626 38.3114 25.1586 39.2397 22.0613 39.3944C18.3416 39.5807 14.8259 38.7791 11.6125 36.81C6.40574 33.6173 3.45957 28.9795 2.69314 22.9387C2.67906 22.8144 2.69629 22.6869 2.71663 22.5365C2.72677 22.4614 2.73768 22.3807 2.74587 22.2918C2.88524 22.2918 3.01792 22.2926 3.14608 22.2934C3.38971 22.2949 3.617 22.2964 3.84278 22.2918C4.03119 22.288 4.21986 22.286 4.40858 22.284C4.92062 22.2785 5.43302 22.2731 5.94167 22.232C6.91201 22.1546 7.5132 21.6026 7.7382 20.6356C7.84368 20.1821 7.9386 19.7214 7.98782 19.2608C8.17064 17.5203 8.78237 15.9205 9.6156 14.405C9.84397 13.9854 10.1319 13.5992 10.4015 13.2376C10.5138 13.087 10.6228 12.9407 10.7231 12.7981L12.6637 14.5386C12.5352 14.7533 12.4029 14.9582 12.2733 15.1589C12.006 15.5729 11.7504 15.9689 11.5633 16.3951C9.88983 20.1891 10.1641 23.8213 12.5899 27.232C13.4477 28.438 14.5341 29.3979 15.8384 30.1012C16.5451 30.4809 17.2447 30.3262 17.6209 29.7531C18.0112 29.1623 17.8705 28.4943 17.2447 27.9915C17.11 27.8852 16.9657 27.7904 16.8217 27.6958C16.7703 27.6621 16.719 27.6284 16.6681 27.5941C14.5517 26.1701 13.3317 24.1624 13.1384 21.6518C12.9098 18.6666 14.1052 16.244 16.5451 14.4964C17.4381 13.8565 18.433 13.3677 19.6635 13.2939C19.6701 13.3785 19.6772 13.4604 19.6841 13.5403C19.7031 13.7592 19.7207 13.9634 19.7233 14.1694C19.7303 14.5351 19.7321 14.8999 19.7339 15.2647C19.7356 15.6295 19.7374 15.9943 19.7444 16.36C19.762 17.4078 20.3561 18.0126 21.2984 18.3396C21.3858 18.3701 21.4741 18.3986 21.5624 18.427C21.7794 18.4969 21.996 18.5666 22.1984 18.6666C23.1652 19.1448 23.7453 20.1996 23.6398 21.2439C23.5238 22.3902 22.6906 23.3044 21.4952 23.5998C20.553 23.8318 19.4385 23.3572 18.8268 22.4851C18.3381 21.7854 18.2959 21.0506 18.4787 20.2348C18.6862 19.2995 18.2748 18.649 17.4873 18.5013C16.7138 18.3537 16.1373 18.8248 15.9334 19.7707C15.508 21.7221 16.0072 23.3923 17.4451 24.7882C19.2381 26.5287 22.0402 26.7081 24.1004 25.1996C26.1536 23.6947 26.8286 20.8431 25.6579 18.6349C25.0461 17.4887 24.1391 16.6694 22.9402 16.1596C22.7011 16.0576 22.346 15.8431 22.3285 15.6568C22.2773 15.0994 22.2857 14.5346 22.2941 13.9691C22.2972 13.7569 22.3003 13.5446 22.3003 13.3326C22.3847 13.327 22.4501 13.3193 22.503 13.3131C22.5846 13.3034 22.6366 13.2973 22.6835 13.308C26.5508 14.2397 29.4021 17.9563 28.8255 22.0491C28.3263 25.5723 25.6754 28.1813 22.55 28.7123C20.2893 29.0955 19.6319 29.63 19.7233 32.0315C19.7403 32.4863 19.7355 32.941 19.7309 33.3736C19.7288 33.5666 19.7268 33.7551 19.7268 33.9373C19.6589 33.9678 19.6134 33.9895 19.5817 34.0047C19.5329 34.028 19.5167 34.0358 19.5018 34.0358C19.4786 34.0343 19.4554 34.0331 19.4322 34.0318C19.3394 34.0267 19.2466 34.0217 19.1538 34.0076C15.3814 33.4345 12.3719 31.6096 10.2133 28.4626C9.82922 27.9021 9.51606 27.2933 9.20267 26.6841C9.02261 26.3341 8.84248 25.9839 8.64878 25.6427C8.139 24.7425 7.10186 24.637 6.48661 25.4141C6.13503 25.8607 6.22996 26.3353 6.40574 26.8171C6.87685 28.1145 7.58 29.2924 8.39916 30.393C9.83006 32.3093 11.6055 33.8353 13.736 34.9394C15.5958 35.9028 17.5752 36.4514 19.6565 36.6694C21.2386 36.8346 22.2406 36.0189 22.2863 34.4225C22.3074 33.663 22.3039 32.9035 22.2863 32.1441C22.2757 31.6377 22.3917 31.4057 22.9859 31.2896C29.5005 29.9992 33.0866 23.2235 30.8189 17.3973C30.5963 16.8277 30.3237 16.2784 30.0156 15.6578C29.8616 15.3475 29.6986 15.0192 29.5287 14.6617C29.7631 14.4513 30.0062 14.2394 30.2531 14.0242C30.8358 13.5163 31.4397 12.9899 32.0002 12.4219C32.6999 11.7151 32.7596 10.7447 32.0178 9.81641C31.6944 9.41205 31.29 9.06395 30.8822 8.73694C28.5513 6.87337 25.9075 5.73765 22.9367 5.4001C22.4691 5.34736 22.2722 5.16804 22.2828 4.6828C22.3028 3.97143 22.2926 3.26005 22.2824 2.54867C22.2801 2.38453 22.2777 2.22038 22.2757 2.05623C22.2581 0.76228 21.112 -0.102696 20.0292 0.00982091C19.8699 0.0270459 19.7104 0.043978 19.5509 0.0609161C18.9289 0.12696 18.3061 0.193096 17.6877 0.277049C15.5361 0.572407 13.497 1.25454 11.5774 2.25313C10.4945 2.81572 9.45388 3.47676 8.45893 4.18351C7.65031 4.75664 7.67492 5.67788 8.39564 6.25805C8.84214 6.61669 9.42927 6.5956 10.0867 6.14201C11.7707 4.97465 13.5462 3.98309 15.522 3.3994C16.8545 3.00559 18.2045 2.71024 19.7268 2.65398C19.7268 2.89445 19.729 3.12912 19.7311 3.35986C19.7357 3.84774 19.74 4.31801 19.7233 4.78829C19.6495 6.97886 20.2401 7.72429 22.5605 7.93877C25.2395 8.18491 27.5915 9.29953 29.6834 11.0998C29.615 11.1734 29.5503 11.2439 29.4878 11.312C29.3382 11.4749 29.2014 11.624 29.0576 11.7679C28.7635 12.062 28.4658 12.3507 28.1684 12.6391C28.0498 12.7542 27.9313 12.8692 27.813 12.9845C23.4394 9.76718 19.0307 9.66169 14.5376 12.661C14.4322 12.5518 14.3276 12.4434 14.223 12.3349ZM34.0411 29.8014C33.8512 30.12 33.6621 30.4371 33.4803 30.7552H33.4733L33.642 30.926C34.1451 31.4356 34.6935 31.991 35.2874 32.5976C37.4883 29.8796 38.7926 26.796 39.2707 23.3325C39.654 20.5618 39.3692 17.8544 38.5113 15.2243C37.4988 12.123 35.748 9.47534 33.2975 7.28477C31.1248 5.34384 28.6357 4.01825 25.8477 3.22711C25.2289 3.05482 24.8 2.7243 24.6981 2.06678C24.6207 1.56045 24.7578 1.06819 25.2325 0.88183C25.6368 0.720086 26.1606 0.642731 26.5649 0.755248C27.6267 1.05412 28.6884 1.40925 29.6904 1.86636C33.621 3.65608 36.7289 6.40924 38.9578 10.1012C40.5856 12.7981 41.556 15.7165 41.8864 18.8776C42.3013 22.8508 41.5665 26.6026 39.8965 30.1785C39.1477 31.7819 38.1668 33.2727 36.9855 34.6089C35.9273 35.8044 34.7425 35.8642 33.5718 34.753C33.0977 34.3036 32.6462 33.8316 32.194 33.3591C32.0024 33.1587 31.8106 32.9583 31.617 32.7594C31.3299 32.9548 31.054 33.1489 30.784 33.3388C30.1842 33.7607 29.613 34.1624 29.0119 34.514C28.1857 34.9957 27.3067 35.3895 26.4278 35.7692C25.7844 36.047 25.0637 35.7446 24.7895 35.1644C24.5117 34.5702 24.7156 33.8564 25.3274 33.5013C25.6224 33.3321 25.9319 33.1884 26.2417 33.0445C26.4599 32.9431 26.6783 32.8417 26.8919 32.7313C30.4287 30.9064 32.7209 28.0758 33.737 24.2256C34.4261 21.6131 34.2679 19.0358 33.4135 16.4866C33.0655 15.4563 33.2131 14.9359 33.8882 14.5949C34.6124 14.2292 35.414 14.5281 35.7023 15.3755C36.0468 16.3916 36.3773 17.4254 36.5496 18.4802C37.0699 21.6448 36.655 24.7074 35.2628 27.6012C34.9002 28.3606 34.4684 29.0847 34.0411 29.8014ZM56.0976 11.9V31.5H59.7936V11.9H56.0976ZM63.4804 11.9V31.5H67.1204V14.42H67.6244L71.5164 31.5H78.5444V11.9H74.9044V28.98H74.4004L70.5084 11.9H63.4804ZM86.7742 15.26V31.5H90.4702V15.26H96.1822V11.9H81.0622V15.26H86.7742ZM98.6992 11.9V31.5H111.467V28.14H102.395V23.296H110.515V19.936H102.395V15.26H111.299V11.9H98.6992ZM114.203 11.9V31.5H117.899V24.108H123.051C123.592 24.108 123.975 24.248 124.199 24.528C124.442 24.808 124.563 25.172 124.563 25.62V31.5H128.259V25.088C128.259 24.304 128.054 23.6787 127.643 23.212C127.232 22.7267 126.654 22.4653 125.907 22.428V21.924C126.728 21.588 127.419 21.056 127.979 20.328C128.539 19.6 128.819 18.648 128.819 17.472V17.136C128.819 16.072 128.567 15.148 128.063 14.364C127.559 13.58 126.85 12.9733 125.935 12.544C125.02 12.1147 123.947 11.9 122.715 11.9H114.203ZM122.323 20.748H117.899V15.26H122.323C123.219 15.26 123.91 15.5027 124.395 15.988C124.88 16.4547 125.123 17.08 125.123 17.864V18.144C125.123 18.928 124.871 19.5627 124.367 20.048C123.882 20.5147 123.2 20.748 122.323 20.748ZM131.894 11.9V31.5H135.534V14.42H136.038L139.93 31.5H146.958V11.9H143.318V28.98H142.814L138.922 11.9H131.894ZM150.652 11.9V31.5H163.42V28.14H154.348V23.296H162.468V19.936H154.348V15.26H163.252V11.9H150.652ZM170.692 15.26V31.5H174.388V15.26H180.1V11.9H164.98V15.26H170.692ZM191.987 30.996C193.088 31.5933 194.311 31.892 195.655 31.892C196.663 31.892 197.456 31.7707 198.035 31.528C198.614 31.2853 199.043 30.9867 199.323 30.632C199.622 30.2773 199.836 29.9413 199.967 29.624H200.471V31.5H203.887V21.476H195.599V24.612H200.247V24.892C200.247 25.9747 199.939 26.8707 199.323 27.58C198.707 28.2893 197.727 28.644 196.383 28.644C195.039 28.644 193.994 28.2333 193.247 27.412C192.5 26.572 192.127 25.4707 192.127 24.108V19.292C192.127 17.9107 192.5 16.8187 193.247 16.016C193.994 15.2133 195.02 14.812 196.327 14.812C197.204 14.812 197.932 14.98 198.511 15.316C199.09 15.6333 199.519 16.072 199.799 16.632C200.098 17.192 200.247 17.8173 200.247 18.508V18.732H203.887V18.62C203.887 16.436 203.224 14.7093 201.899 13.44C200.592 12.152 198.735 11.508 196.327 11.508C193.9 11.508 191.978 12.1893 190.559 13.552C189.14 14.896 188.431 16.828 188.431 19.348V24.052C188.431 25.732 188.748 27.16 189.383 28.336C190.036 29.4933 190.904 30.38 191.987 30.996ZM211.226 11.9L206.074 31.5H209.882L210.946 27.188H217.946L219.01 31.5H222.818L217.666 11.9H211.226ZM217.078 23.772H211.814L214.194 14.224H214.698L217.078 23.772ZM225.164 11.9V31.5H228.748V14.616H229.252L232.612 31.5H238.716L242.076 14.616H242.58V31.5H246.164V11.9H239.304L235.916 28.98H235.412L232.024 11.9H225.164ZM249.855 11.9V31.5H262.623V28.14H253.551V23.296H261.671V19.936H253.551V15.26H262.455V11.9H249.855Z" fill="white"/>
</svg>
