<svg width="707" height="62" viewBox="0 0 707 62" fill="none" xmlns="http://www.w3.org/2000/svg">
<path d="M45.8333 61.6667H0V50H16.6667V11.6667H0V0H45.8333V11.6667H29.1667V50H45.8333V61.6667Z" />
<path d="M102.833 61.6667H90.3333V41.3333L69.5 20.5V61.6667H57V0H65.8333L90.3333 24.5V0H102.833V61.6667Z" />
<path d="M159.833 11.6667H143.167V61.6667H130.667V11.6667H114V0H159.833V11.6667Z" />
<path d="M216.833 61.6667H171V0H216.833V11.6667H183.5V25H208.5V36.6667H183.5V50H216.833V61.6667Z" />
<path d="M261.333 61.6667V43.3333C261.333 41.4444 260.694 39.8611 259.417 38.5833C258.139 37.3056 256.694 36.6667 255.083 36.6667H240.5V61.6667H228V0H255.083C260.361 0 264.806 1.80556 268.417 5.41667C272.028 9.02778 273.833 13.3333 273.833 18.3333C273.833 23.8333 271.833 28 267.833 30.8333C271.833 33.6667 273.833 37.8333 273.833 43.3333V61.6667H261.333ZM240.5 25H255.083C256.694 25 258.139 24.3611 259.417 23.0833C260.694 21.8056 261.333 20.2222 261.333 18.3333C261.333 16.4444 260.694 14.8611 259.417 13.5833C258.139 12.3056 256.694 11.6667 255.083 11.6667H240.5V25Z" />
<path d="M330.833 61.6667H318.333V41.3333L297.5 20.5V61.6667H285V0H293.833L318.333 24.5V0H330.833V61.6667Z" />
<path d="M387.833 61.6667H342V0H387.833V11.6667H354.5V25H379.5V36.6667H354.5V50H387.833V61.6667Z" />
<path d="M444.833 11.6667H428.167V61.6667H415.667V11.6667H399V0H444.833V11.6667Z" />
<path d="M535.833 43.3333C535.833 48.2778 534 52.5833 530.333 56.25C526.722 59.8611 522.306 61.6667 517.083 61.6667H508.75C503.528 61.6667 499.083 59.8611 495.417 56.25C491.806 52.5833 490 48.2778 490 43.3333V18.3333C490 13.3889 491.806 9.11111 495.417 5.5C499.083 1.83333 503.528 0 508.75 0H517.083C522.306 0 526.722 1.83333 530.333 5.5C534 9.11111 535.833 13.9444 535.833 20H523.333C523.333 17 522.694 14.8611 521.417 13.5833C520.139 12.3056 518.694 11.6667 517.083 11.6667H508.75C507.139 11.6667 505.694 12.3056 504.417 13.5833C503.139 14.8611 502.5 16.4444 502.5 18.3333V43.3333C502.5 45.2222 503.139 46.8056 504.417 48.0833C505.694 49.3611 507.139 50 508.75 50H517.083C518.694 50 520.139 49.3611 521.417 48.0833C522.694 46.8056 523.333 45.2222 523.333 43.3333V36.6667H515V25H535.833V43.3333Z" />
<path d="M559.5 45V61.6667H547V32.5833L563.333 0H576.583L592.833 32.5833V61.6667H580.333V45H559.5ZM569.917 14.5L560.5 33.3333H579.333L569.917 14.5Z" />
<path d="M649.833 61.6667H637.333V21L633.167 25.1667V36.6667H620.667V25.1667L616.5 21V61.6667H604V0H613.333L626.917 13.5833L640.5 0H649.833V61.6667Z" />
<path d="M706.833 61.6667H661V0H706.833V11.6667H673.5V25H698.5V36.6667H673.5V50H706.833V61.6667Z" />
</svg>
