<svg width="24" height="21" viewBox="0 0 24 21" fill="none" xmlns="http://www.w3.org/2000/svg">
<path d="M22.068 0.133789L13.3418 6.6148L14.9555 2.79109L22.068 0.133789Z" fill="#E2761B" stroke="#E2761B" stroke-width="0.0876998" stroke-linecap="round" stroke-linejoin="round"/>
<path d="M1.92332 0.133789L10.5793 6.67619L9.04454 2.79109L1.92332 0.133789Z" fill="#E4761B" stroke="#E4761B" stroke-width="0.0876998" stroke-linecap="round" stroke-linejoin="round"/>
<path d="M18.9283 15.1567L16.6043 18.7173L21.5768 20.0855L23.0063 15.2357L18.9283 15.1567Z" fill="#E4761B" stroke="#E4761B" stroke-width="0.0876998" stroke-linecap="round" stroke-linejoin="round"/>
<path d="M1.00247 15.2357L2.42321 20.0855L7.39578 18.7173L5.07174 15.1567L1.00247 15.2357Z" fill="#E4761B" stroke="#E4761B" stroke-width="0.0876998" stroke-linecap="round" stroke-linejoin="round"/>
<path d="M7.11515 9.14046L5.72949 11.2365L10.667 11.4557L10.4916 6.1499L7.11515 9.14046Z" fill="#E4761B" stroke="#E4761B" stroke-width="0.0876998" stroke-linecap="round" stroke-linejoin="round"/>
<path d="M16.8761 9.14082L13.4558 6.08887L13.3418 11.4561L18.2706 11.2368L16.8761 9.14082Z" fill="#E4761B" stroke="#E4761B" stroke-width="0.0876998" stroke-linecap="round" stroke-linejoin="round"/>
<path d="M7.39578 18.7176L10.36 17.2705L7.7992 15.271L7.39578 18.7176Z" fill="#E4761B" stroke="#E4761B" stroke-width="0.0876998" stroke-linecap="round" stroke-linejoin="round"/>
<path d="M13.6312 17.2705L16.6043 18.7176L16.1921 15.271L13.6312 17.2705Z" fill="#E4761B" stroke="#E4761B" stroke-width="0.0876998" stroke-linecap="round" stroke-linejoin="round"/>
<path d="M16.6043 18.718L13.6312 17.271L13.868 19.2092L13.8417 20.0248L16.6043 18.718Z" fill="#D7C1B3" stroke="#D7C1B3" stroke-width="0.0876998" stroke-linecap="round" stroke-linejoin="round"/>
<path d="M7.39578 18.718L10.1583 20.0248L10.1408 19.2092L10.36 17.271L7.39578 18.718Z" fill="#D7C1B3" stroke="#D7C1B3" stroke-width="0.0876998" stroke-linecap="round" stroke-linejoin="round"/>
<path d="M10.2022 13.9908L7.72904 13.2629L9.47427 12.4648L10.2022 13.9908Z" fill="#233447" stroke="#233447" stroke-width="0.0876998" stroke-linecap="round" stroke-linejoin="round"/>
<path d="M13.7891 13.9908L14.517 12.4648L16.271 13.2629L13.7891 13.9908Z" fill="#233447" stroke="#233447" stroke-width="0.0876998" stroke-linecap="round" stroke-linejoin="round"/>
<path d="M7.39578 18.7173L7.81673 15.1567L5.07173 15.2357L7.39578 18.7173Z" fill="#CD6116" stroke="#CD6116" stroke-width="0.0876998" stroke-linecap="round" stroke-linejoin="round"/>
<path d="M16.1833 15.1567L16.6042 18.7173L18.9283 15.2357L16.1833 15.1567Z" fill="#CD6116" stroke="#CD6116" stroke-width="0.0876998" stroke-linecap="round" stroke-linejoin="round"/>
<path d="M18.2705 11.2363L13.3418 11.4556L13.7979 13.9901L14.5258 12.4641L16.2798 13.2622L18.2705 11.2363Z" fill="#CD6116" stroke="#CD6116" stroke-width="0.0876998" stroke-linecap="round" stroke-linejoin="round"/>
<path d="M7.72903 13.2622L9.48303 12.4641L10.2022 13.9901L10.667 11.4556L5.72948 11.2363L7.72903 13.2622Z" fill="#CD6116" stroke="#CD6116" stroke-width="0.0876998" stroke-linecap="round" stroke-linejoin="round"/>
<path d="M5.72949 11.2368L7.79921 15.271L7.72905 13.2627L5.72949 11.2368Z" fill="#E4751F" stroke="#E4751F" stroke-width="0.0876998" stroke-linecap="round" stroke-linejoin="round"/>
<path d="M16.2798 13.2622L16.1921 15.2705L18.2706 11.2363L16.2798 13.2622Z" fill="#E4751F" stroke="#E4751F" stroke-width="0.0876998" stroke-linecap="round" stroke-linejoin="round"/>
<path d="M10.667 11.4556L10.2022 13.9901L10.781 16.9807L10.9125 13.0429L10.667 11.4556Z" fill="#E4751F" stroke="#E4751F" stroke-width="0.0876998" stroke-linecap="round" stroke-linejoin="round"/>
<path d="M13.3418 11.4556L13.105 13.0342L13.2103 16.9807L13.7979 13.9901L13.3418 11.4556Z" fill="#E4751F" stroke="#E4751F" stroke-width="0.0876998" stroke-linecap="round" stroke-linejoin="round"/>
<path d="M13.7979 13.9906L13.2103 16.9812L13.6312 17.2706L16.1921 15.271L16.2798 13.2627L13.7979 13.9906Z" fill="#F6851B" stroke="#F6851B" stroke-width="0.0876998" stroke-linecap="round" stroke-linejoin="round"/>
<path d="M7.72904 13.2627L7.7992 15.271L10.36 17.2706L10.781 16.9812L10.2022 13.9906L7.72904 13.2627Z" fill="#F6851B" stroke="#F6851B" stroke-width="0.0876998" stroke-linecap="round" stroke-linejoin="round"/>
<path d="M13.8417 20.0245L13.868 19.2089L13.6488 19.016H10.3425L10.1408 19.2089L10.1583 20.0245L7.39578 18.7178L8.36048 19.5071L10.3162 20.8664H13.6751L15.6396 19.5071L16.6043 18.7178L13.8417 20.0245Z" fill="#C0AD9E" stroke="#C0AD9E" stroke-width="0.0876998" stroke-linecap="round" stroke-linejoin="round"/>
<path d="M13.6312 17.2709L13.2103 16.9814H10.781L10.36 17.2709L10.1408 19.209L10.3425 19.0161H13.6488L13.868 19.209L13.6312 17.2709Z" fill="#161616" stroke="#161616" stroke-width="0.0876998" stroke-linecap="round" stroke-linejoin="round"/>
<path d="M22.4363 7.03576L23.1817 3.45761L22.068 0.133789L13.6312 6.39555L16.8761 9.14055L21.4628 10.4824L22.4801 9.29841L22.0416 8.98269L22.7432 8.34249L22.1995 7.92153L22.9011 7.38656L22.4363 7.03576Z" fill="#763D16" stroke="#763D16" stroke-width="0.0876998" stroke-linecap="round" stroke-linejoin="round"/>
<path d="M0.818298 3.45859L1.56375 7.03674L1.09017 7.38754L1.79177 7.9225L1.2568 8.34346L1.9584 8.98367L1.5199 9.29939L2.52844 10.4833L7.11514 9.14153L10.36 6.39653L1.92332 0.134766L0.818298 3.45859Z" fill="#763D16" stroke="#763D16" stroke-width="0.0876998" stroke-linecap="round" stroke-linejoin="round"/>
<path d="M21.4628 10.4824L16.8761 9.14062L18.2706 11.2367L16.1921 15.2708L18.9283 15.2358H23.0063L21.4628 10.4824Z" fill="#F6851B" stroke="#F6851B" stroke-width="0.0876998" stroke-linecap="round" stroke-linejoin="round"/>
<path d="M7.11515 9.14062L2.52845 10.4824L1.00247 15.2358H5.07174L7.7992 15.2708L5.72949 11.2367L7.11515 9.14062Z" fill="#F6851B" stroke="#F6851B" stroke-width="0.0876998" stroke-linecap="round" stroke-linejoin="round"/>
<path d="M13.3418 11.4562L13.6312 6.39596L14.9643 2.7915H9.04454L10.36 6.39596L10.667 11.4562L10.7722 13.0524L10.781 16.9813H13.2103L13.2278 13.0524L13.3418 11.4562Z" fill="#F6851B" stroke="#F6851B" stroke-width="0.0876998" stroke-linecap="round" stroke-linejoin="round"/>
</svg>
