<svg viewBox="0 0 376 560" fill="none" xmlns="http://www.w3.org/2000/svg">
<path d="M343.33 51.746C343.33 80.047 320.389 102.988 292.088 102.988C263.787 102.988 240.842 80.047 240.842 51.746C240.842 23.441 263.787 0.5 292.088 0.5C320.389 0.5 343.33 23.441 343.33 51.746Z"/>
<path d="M317.1 182.67C313.956 182.67 310.913 181.061 309.19 178.147C306.6 173.779 308.034 168.124 312.413 165.538L359.768 137.495C364.166 134.893 369.78 136.35 372.389 140.729C374.967 145.096 373.533 150.752 369.142 153.338L321.81 181.381C320.318 182.256 318.685 182.67 317.1 182.67L317.1 182.67Z"/>
<path d="M372.04 191.13C364.384 178.786 348.173 174.985 335.806 182.642L289.54 211.322L258.649 114.166C258.059 111.998 257.372 109.943 256.583 108.142C250.77 94.5994 232.317 77.6424 214.661 74.3764C173.216 66.642 159.727 109.821 158.751 113.966C157.786 118.111 97.9386 394.886 97.9386 394.886L5.31761 499.506C2.32931 503.76 0.841022 508.772 0.841022 514.729C-0.369878 524.862 2.32932 533.651 8.88402 541.151C15.4387 548.573 23.806 552.874 33.927 554.116C48.849 555.273 60.181 549.296 67.927 536.206L165.927 422.686C167.728 419.077 170.095 414.054 173.107 407.42L190.263 335.197L264.986 396.853L266.009 531.233C269.611 548.553 280.63 558.112 299.118 559.932C309.239 560.487 318.04 557.522 325.516 550.956C332.938 544.346 336.981 536.323 337.559 526.788V518.698L335.637 376.238C334.426 372.105 332.938 368.172 331.161 364.617L237.696 275.297L205.876 182.117C204.465 177.996 206.653 173.496 210.774 172.082C214.895 170.672 219.376 172.859 220.797 176.98L249.641 259.414C252.118 267.137 257.997 273.305 265.598 276.113C268.547 277.25 271.625 277.781 274.704 277.781C279.547 277.781 284.348 276.449 288.559 273.836L363.536 227.359C375.872 219.703 379.692 203.48 372.039 191.136L372.04 191.13Z"/>
</svg>
